<svg xmlns="http://www.w3.org/2000/svg" version="1.1" xmlns:xlink="http://www.w3.org/1999/xlink" xmlns:svgjs="http://svgjs.dev/svgjs" width="100%" height="100%" viewBox="0 0 1000 600"><rect width="1000" height="600" x="0" y="0" fill="#97dece"/><g><rect width="333.3333333333333" height="333.3333333333333" rx="13.333333333333334" ry="13.333333333333334" y="189.17669421253726" fill="#227c70" transform="matrix(0.7487072187976206,0,0,0.7487072187976207,0,33.57752983671679)" x="166.95449829101562"/><path d="M350.7367597234868 322.3409166887697L350.58671684493504 399.9773889908388Q350.58671684493504 406.15058170839706 349.19346154409726 411.7021682148123Q347.82164094019544 417.2537547212275 344.8850874599681 421.4978247145487Q341.9485339797407 425.74189470787 337.1685965630203 428.29262364325Q332.38865914629986 430.84335257862995 325.74390309615035 430.84335257862995L325.74390309615035 430.84335257862995Q319.57071037859214 430.84335257862995 317.1057202309561 429.06427273294474Q314.64073008331997 427.2851928872596 314.64073008331997 423.27690456023396L314.64073008331997 423.27690456023396Q314.64073008331997 419.2686162332082 317.8773693206508 418.34692426496173Q321.1140085579817 417.4252322967152 325.2723397635591 417.4252322967152L325.2723397635591 417.4252322967152Q330.37379763431903 417.4252322967152 332.92452656969897 412.94538063709825Q335.47525550507896 408.46552897748137 335.47525550507896 401.9922505028196L335.47525550507896 401.9922505028196L335.47525550507896 322.51239426425747Q335.47525550507896 318.8041916943353 336.07542701928605 316.7893301823545Q336.69703323042904 314.7959033673097 337.7902027741633 313.7027338235754Q338.8619376209616 312.6309989767771 340.2551929217994 312.3952173104815Q341.64844822263717 312.15943564418586 343.19174640202675 312.15943564418586L343.19174640202675 312.15943564418586Q345.9568223067664 312.15943564418586 348.35750836359455 314.17429715616663Q350.7367597234868 316.1677239712115 350.7367597234868 322.3409166887697L350.7367597234868 322.3409166887697ZM343.020268826539 280.8433434207394L343.020268826539 280.8433434207394Q346.5784285179094 280.8433434207394 349.5792860889446 283.608419325479Q352.60157835691587 286.39492992715464 352.60157835691587 290.25317537562853L352.60157835691587 290.25317537562853Q352.60157835691587 293.9613779455506 349.51498199813676 296.66214975948236Q346.42838563935766 299.3629215734141 342.57014019088376 299.3629215734141L342.57014019088376 299.3629215734141Q339.33350095355286 299.3629215734141 336.4612515641334 296.66214975948236Q333.61043687164994 293.9613779455506 333.61043687164994 289.93165492158903L333.61043687164994 289.93165492158903Q333.61043687164994 286.2448870486029 336.4612515641334 283.54411523467115Q339.33350095355286 280.8433434207394 343.020268826539 280.8433434207394Z " fill="#b5d5c5" transform="matrix(0.7487072187976206,0,0,0.7487072187976207,0,33.57752983671679)"/><path d="M619.7171846044682 322.3409166887697L619.5671417259165 399.9773889908388Q619.5671417259165 406.15058170839706 618.1738864250786 411.7021682148123Q616.8020658211768 417.2537547212275 613.8655123409494 421.4978247145487Q610.9289588607221 425.74189470787 606.1490214440017 428.29262364325Q601.3690840272812 430.84335257862995 594.7243279771318 430.84335257862995L594.7243279771318 430.84335257862995Q588.5511352595736 430.84335257862995 586.0861451119374 429.06427273294474Q583.6211549643014 427.2851928872596 583.6211549643014 423.27690456023396L583.6211549643014 423.27690456023396Q583.6211549643014 419.2686162332082 586.8577942016323 418.34692426496173Q590.094433438963 417.4252322967152 594.2527646445405 417.4252322967152L594.2527646445405 417.4252322967152Q599.3542225153005 417.4252322967152 601.9049514506804 412.94538063709825Q604.4556803860604 408.46552897748137 604.4556803860604 401.9922505028196L604.4556803860604 401.9922505028196L604.4556803860604 322.51239426425747Q604.4556803860604 318.8041916943353 605.0558519002675 316.7893301823545Q605.6774581114105 314.7959033673097 606.7706276551447 313.7027338235754Q607.842362501943 312.6309989767771 609.2356178027808 312.3952173104815Q610.6288731036186 312.15943564418586 612.1721712830082 312.15943564418586L612.1721712830082 312.15943564418586Q614.9372471877477 312.15943564418586 617.337933244576 314.17429715616663Q619.7171846044682 316.1677239712115 619.7171846044682 322.3409166887697L619.7171846044682 322.3409166887697ZM612.0006937075204 280.8433434207394L612.0006937075204 280.8433434207394Q615.5588533988907 280.8433434207394 618.5597109699261 283.608419325479Q621.5820032378972 286.39492992715464 621.5820032378972 290.25317537562853L621.5820032378972 290.25317537562853Q621.5820032378972 293.9613779455506 618.4954068791181 296.66214975948236Q615.4088105203391 299.3629215734141 611.5505650718651 299.3629215734141L611.5505650718651 299.3629215734141Q608.3139258345343 299.3629215734141 605.4416764451148 296.66214975948236Q602.5908617526313 293.9613779455506 602.5908617526313 289.93165492158903L602.5908617526313 289.93165492158903Q602.5908617526313 286.2448870486029 605.4416764451148 283.54411523467115Q608.3139258345343 280.8433434207394 612.0006937075204 280.8433434207394ZM702.1335943232577 391.33920612564447L702.1335943232577 391.33920612564447Q699.6686041756217 391.33920612564447 698.2110447839759 390.48181824820585Q696.7320506953943 389.64586506770314 695.9604016056995 388.25260976686536Q695.1887525160047 386.8593544660276 694.8886667589012 384.93023174179064Q694.5671463048617 383.0011090175537 694.41710342631 380.8362046270211L694.41710342631 380.8362046270211Q690.558857977836 385.61614204374155 684.4714040480217 388.8742159780084Q678.3625154212714 392.11085521533926 668.9526834663823 392.11085521533926L668.9526834663823 392.11085521533926Q662.9295336273758 392.11085521533926 656.6920368190097 390.33177536965405Q650.4331053137075 388.5526955239689 645.3530821398837 384.15858265209584Q640.2516242691237 379.7644697802228 637.0149850317928 372.34806464037854Q633.778345794462 364.95309419747025 633.778345794462 353.6784436091521L633.778345794462 353.6784436091521Q633.778345794462 344.890217865406 635.9218154880585 337.17372696845825Q638.0867198785911 329.45723607151047 642.4808327504642 323.6698678987996Q646.8963803192732 317.8824997260888 653.5197016724867 314.4743829132702Q660.1644577226361 311.0877007973875 669.102726344934 311.0877007973875L669.102726344934 311.0877007973875Q676.9906948173696 311.0877007973875 683.1638875349278 313.938515489871Q689.337080252486 316.7893301823545 694.2670605477582 323.2840433539522L694.2670605477582 323.2840433539522Q694.2670605477582 321.4192247205232 694.41710342631 319.4901019962862Q694.5671463048617 317.5609792720493 695.2744913037486 315.95337700185183Q695.9604016056995 314.32434003471843 697.5036997850891 313.316909278728Q699.0469979644787 312.3094785227376 701.6834656876025 312.3094785227376L701.6834656876025 312.3094785227376Q703.9984129566868 312.3094785227376 705.9918397717316 314.17429715616663Q708.0067012837125 316.01768109265976 708.306787040816 322.19087381021797L708.306787040816 322.19087381021797Q708.7783503734072 330.378928039757 709.0141320397029 336.85220651441875Q709.2284790090625 343.34691968601646 709.2284790090625 350.29176149326946L709.2284790090625 350.29176149326946Q709.2284790090625 358.77990147991204 709.0784361305108 365.8747861657168Q708.928393251959 372.9696708515216 708.306787040816 380.98624750557286L708.306787040816 380.98624750557286Q708.0067012837125 384.54440719694327 707.4708338603133 386.62357279973196Q706.9135317399782 388.70273840252065 706.1418826502834 389.71016915851106Q705.3702335605886 390.7175999145015 704.2984987137903 391.01768567160497Q703.226763866992 391.33920612564447 702.1335943232577 391.33920612564447ZM693.795497215167 352.13514542976253L693.795497215167 352.13514542976253Q693.795497215167 344.11856877571125 691.4162458552747 339.0171109049513Q689.0155597984465 333.9156530341914 685.3930960162683 331.0648383417079Q681.7706322340899 328.21402364922443 677.5908663315765 327.1422888024261Q673.4325351259992 326.04911925869186 669.8743754346289 326.04911925869186L669.8743754346289 326.04911925869186Q664.3227889282136 326.04911925869186 660.4002393889318 328.0639807706727Q656.456255152714 330.0574075857175 653.9912650050779 333.529828489344Q651.5262748574419 337.0022493929705 650.3688012228997 341.71788271888306Q649.2113275883576 346.43351604479557 649.2113275883576 351.9851025512108L649.2113275883576 351.9851025512108Q649.2113275883576 365.5532657116773 655.1487386396202 372.047978883275Q661.0861496908827 378.5212573579368 671.2676307354666 378.5212573579368L671.2676307354666 378.5212573579368Q677.290780574473 378.5212573579368 681.5348505677944 376.44209175514806Q685.7789205611157 374.36292615235936 688.4796923750474 370.804766460989Q691.180464188979 367.2680414665546 692.4879807020731 362.4023652620903Q693.795497215167 357.536689057626 693.795497215167 352.13514542976253ZM745.3459433461653 418.9685304761048L745.3459433461653 418.9685304761048Q743.3525165311205 422.5052554705391 741.5734366854354 424.19859652848044Q739.7943568397501 425.9133722833578 737.4794095706658 425.9133722833578L737.4794095706658 425.9133722833578Q735.3145051801332 425.9133722833578 733.1496007896006 424.52011698251994Q731.006131096004 423.12686168168216 731.006131096004 420.66187153404604L731.006131096004 420.66187153404604Q731.006131096004 418.34692426496173 732.6137333662015 414.0171154838966Q734.242770333335 409.7087413997674 736.6220216932271 404.6072835290075Q739.0227077500554 399.50582565824755 741.6377407762433 394.1042820303841Q744.2742084993671 388.70273840252065 746.4391128898997 384.2443214398397L746.4391128898997 384.2443214398397L747.5108477366979 381.92937417075535Q742.8809531985293 372.8196279729698 738.015276994065 362.4666693528982Q733.1496007896006 352.13514542976253 729.141312462575 342.8753563534252Q725.1330241355494 333.61556727708785 722.5822952001694 326.7564642575787Q720.0315662647894 319.87592654113365 720.0315662647894 317.711022150601L720.0315662647894 317.711022150601Q720.0315662647894 315.7175953355562 721.6606032319229 314.23860124697455Q723.2896401990562 312.78104185532885 725.7546303466924 312.78104185532885L725.7546303466924 312.78104185532885Q727.9195347372249 312.78104185532885 729.9129615522697 313.6384297327675Q731.9278230642506 314.4743829132702 733.6211641221919 317.41093639349754L733.6211641221919 317.41093639349754Q736.0861542698281 322.0408309316662 738.7869260837597 327.9782419829288Q741.4876978976914 333.9156530341914 744.1884697116232 340.4103662057891Q746.8892415255549 346.88364468045086 749.7400562180384 353.52840073060037Q752.6123056074579 360.15172208381387 755.5274243907492 366.3249148013721L755.5274243907492 366.3249148013721Q758.9355412035678 360.00167920526206 762.7937866520417 353.0568373980091Q766.6520321005156 346.11199559075607 770.2744958826939 339.6387171160943Q773.8969596648722 333.1440039444966 776.9835560236512 327.67815622582526Q780.0701523824304 322.19087381021797 782.2350567729629 318.4826712402958L782.2350567729629 318.4826712402958Q784.3999611634955 314.9459462458614 786.5648655540281 313.40264806647184Q788.7083352476246 311.8593498870823 791.0232825167091 311.8593498870823L791.0232825167091 311.8593498870823Q792.5665806960986 311.8593498870823 794.1098788754881 313.1668664001762Q795.6531770548777 314.4743829132702 795.6531770548777 316.63928730380275L795.6531770548777 316.63928730380275Q795.6531770548777 319.87592654113365 792.8023623623942 327.0565500146823Q789.9515476699107 334.2371734882309 785.4716960102938 343.64700544312Q780.991844350677 353.0568373980091 775.3759537534538 363.7956205629281Q769.7386284592948 374.5129690309111 764.1870419528796 384.78018886323883Q758.6140207495283 395.0474086955666 753.5983016665123 403.9856773178645Q748.5825825834962 412.94538063709825 745.3459433461653 418.9685304761048ZM870.5031387552712 391.33920612564447L870.5031387552712 391.33920612564447Q868.0381486076351 391.33920612564447 866.5805892159893 390.48181824820585Q865.1015951274077 389.64586506770314 864.3299460377131 388.25260976686536Q863.5582969480182 386.8593544660276 863.2582111909147 384.93023174179064Q862.9581254338111 383.0011090175537 862.7866478583234 380.8362046270211L862.7866478583234 380.8362046270211Q858.9284024098496 385.61614204374155 852.8409484800352 388.8742159780084Q846.7534945502208 392.11085521533926 837.3222278983957 392.11085521533926L837.3222278983957 392.11085521533926Q831.3205127563252 392.11085521533926 825.0615812510231 390.33177536965405Q818.802649745721 388.5526955239689 813.7226265718971 384.15858265209584Q808.6211687011372 379.7644697802228 805.3845294638063 372.34806464037854Q802.1478902264754 364.95309419747025 802.1478902264754 353.6784436091521L802.1478902264754 353.6784436091521Q802.1478902264754 344.890217865406 804.312794617008 337.17372696845825Q806.4562643106046 329.45723607151047 810.8718118794136 323.6698678987996Q815.2659247512867 317.8824997260888 821.8892461045001 314.4743829132702Q828.5340021546497 311.0877007973875 837.4937054738834 311.0877007973875L837.4937054738834 311.0877007973875Q845.360239249383 311.0877007973875 851.5334319669413 313.938515489871Q857.7066246844994 316.7893301823545 862.6366049797717 323.2840433539522L862.6366049797717 323.2840433539522Q862.6366049797717 321.4192247205232 862.7866478583234 319.4901019962862Q862.9581254338111 317.5609792720493 863.644035735762 315.95337700185183Q864.3299460377131 314.32434003471843 865.8732442171025 313.316909278728Q867.4165423964921 312.3094785227376 870.0530101196158 312.3094785227376L870.0530101196158 312.3094785227376Q872.3679573887003 312.3094785227376 874.3613842037452 314.17429715616663Q876.376245715726 316.01768109265976 876.6763314728295 322.19087381021797L876.6763314728295 322.19087381021797Q877.1478948054206 330.378928039757 877.3836764717163 336.85220651441875Q877.619458138012 343.34691968601646 877.619458138012 350.29176149326946L877.619458138012 350.29176149326946Q877.619458138012 358.77990147991204 877.4479805625242 365.8747861657168Q877.2979376839725 372.9696708515216 876.6763314728295 380.98624750557286L876.6763314728295 380.98624750557286Q876.376245715726 384.54440719694327 875.8403782923268 386.62357279973196Q875.3045108689277 388.70273840252065 874.5328617792328 389.71016915851106Q873.761212689538 390.7175999145015 872.6680431458038 391.01768567160497Q871.5963082990055 391.33920612564447 870.5031387552712 391.33920612564447ZM862.1864763441164 352.13514542976253L862.1864763441164 352.13514542976253Q862.1864763441164 344.11856877571125 859.7857902872881 339.0171109049513Q857.3851042304599 333.9156530341914 853.7626404482817 331.0648383417079Q850.1401766661035 328.21402364922443 845.981845460526 327.1422888024261Q841.8020795580127 326.04911925869186 838.2653545635782 326.04911925869186L838.2653545635782 326.04911925869186Q832.692333360227 326.04911925869186 828.7697838209452 328.0639807706727Q824.8257995847275 330.0574075857175 822.3608094370915 333.529828489344Q819.8958192894553 337.0022493929705 818.7383456549131 341.71788271888306Q817.580872020371 346.43351604479557 817.580872020371 351.9851025512108L817.580872020371 351.9851025512108Q817.580872020371 365.5532657116773 823.5182830716336 372.047978883275Q829.4556941228963 378.5212573579368 839.63717516748 378.5212573579368L839.63717516748 378.5212573579368Q845.6603250064865 378.5212573579368 849.9043949998078 376.44209175514806Q854.1484649931291 374.36292615235936 856.8492368070608 370.804766460989Q859.5500086209926 367.2680414665546 860.8575251340865 362.4023652620903Q862.1864763441164 357.536689057626 862.1864763441164 352.13514542976253ZM931.93498017375 324.9773844118935L931.93498017375 324.9773844118935Q926.233350788783 324.9773844118935 921.6677603414222 326.8207683483866Q917.1236045909974 328.6855869818157 911.4005405090944 332.3723548548018L911.4005405090944 332.3723548548018Q911.4005405090944 335.6304287890687 911.4005405090944 341.8679255974348Q911.4005405090944 348.1268571027369 911.2504976305427 355.45752345483726Q911.1004547519909 362.7881898069377 910.9504118734392 369.8830744927424Q910.8003689948874 376.9779591785472 910.3288056622961 381.75789659526765L910.3288056622961 381.75789659526765Q910.0287199051926 384.84449295404676 909.6428953603453 386.62357279973196Q909.2570708154979 388.40265264541716 908.5497258166109 389.32434461366364Q907.8638155146601 390.24603658191023 906.706341880118 390.48181824820585Q905.5488682455756 390.7175999145015 903.6840496121466 390.7175999145015L903.6840496121466 390.7175999145015Q901.8406656756536 390.7175999145015 900.6831920411115 390.48181824820585Q899.5257184065692 390.24603658191023 898.7540693168745 389.4100834014075Q897.9824202271797 388.5526955239689 897.5108568945884 386.8593544660276Q897.0607282589332 385.16601340808626 896.7392078048937 382.2294599278589L896.7392078048937 382.2294599278589Q896.4391220477902 379.44294932618334 896.2033403814945 374.81305478801465Q895.9675587151988 370.18316024984597 895.8175158366472 364.7173125311746Q895.6674729580953 359.23003011556733 895.5817341703515 353.59270482140823Q895.5174300795437 347.97681422418515 895.5174300795437 343.17544211052876L895.5174300795437 343.17544211052876Q895.5174300795437 335.3089083350292 895.7532117458392 330.378928039757Q895.9675587151988 325.4275130475488 896.5891649263419 321.5692675990749L896.5891649263419 321.5692675990749Q897.5108568945884 315.09598912441317 899.054155073978 313.40264806647184Q900.5974532533675 311.7093070085305 903.2339209764914 311.7093070085305L903.2339209764914 311.7093070085305Q907.0921664249653 311.7093070085305 909.0212891492022 313.85277670212713Q910.9504118734392 316.01768109265976 911.4005405090944 320.9690960848679L911.4005405090944 320.9690960848679Q917.1236045909974 316.01768109265976 923.682621853403 313.0811276124324Q930.2416391158087 310.166008829141 937.1864809230616 310.166008829141L937.1864809230616 310.166008829141Q943.8098022762751 310.166008829141 949.2970846918823 313.2526051879201Q954.7843671074899 316.3392015466992 958.3210921019241 323.2840433539522L958.3210921019241 323.2840433539522Q960.4859964924567 327.44237455952964 961.5577313392549 332.4580936425457Q962.6509008829893 337.47381272556174 963.1010295186446 343.02539923197696L963.1010295186446 343.02539923197696Q963.2725070941323 345.4903893796131 963.4225499726841 347.89107543644127Q963.572592851236 350.29176149326946 963.6583316389798 352.9925333072012Q963.7226357297876 355.69330512113294 963.7226357297876 359.0799872370156Q963.7226357297876 362.4666693528982 963.7226357297876 367.09656389106686L963.7226357297876 367.09656389106686Q963.7226357297876 372.047978883275 963.572592851236 376.35635296740423Q963.4225499726841 380.6861617484694 962.7152049737973 383.85849689499236Q962.0292946718463 387.0093973445793 960.335953613905 388.78847719026453Q958.6426125559636 390.56755703594973 955.7060590757363 390.56755703594973L955.7060590757363 390.56755703594973Q948.6111743899315 390.56755703594973 948.289653935892 383.7727581072485L948.289653935892 383.7727581072485Q948.289653935892 383.3011947746572 948.289653935892 379.8287738710307Q948.289653935892 376.35635296740423 948.2253498450841 371.72645842923555Q948.1396110573403 367.09656389106686 948.0538722695965 362.31662647434644Q947.9895681787885 357.536689057626 947.8395253002368 354.4500926988469L947.8395253002368 354.4500926988469Q947.668047724749 351.9851025512108 947.4537007553894 349.1342878587273Q947.2179190890937 346.2620384693078 946.8320945442464 343.34691968601646Q946.446269999399 340.4103662057891 945.824663788256 337.70959439185737Q945.2030575771129 335.0088225779257 944.2813656088664 332.84391818739306L944.2813656088664 332.84391818739306Q942.1164612183338 327.7424603166332 938.8798219810029 326.37063971273136Q935.6431827436721 324.9773844118935 931.93498017375 324.9773844118935ZM992.595172502534 380.6861617484694L992.595172502534 380.6861617484694Q992.1236091699426 370.95480933954076 992.0378703821988 357.6224278453698Q991.973566291391 344.268611654263 991.973566291391 327.2923316809779L991.973566291391 327.2923316809779Q990.4302681120014 327.44237455952964 988.3511025092126 327.44237455952964Q986.250502209488 327.44237455952964 985.0287244841379 327.44237455952964L985.0287244841379 327.44237455952964Q982.2422138824624 327.44237455952964 980.0130054011219 327.2923316809779Q977.7623622228454 327.1422888024261 976.069021164904 326.37063971273136Q974.3756801069627 325.59899062303657 973.4539881387162 324.1199965344549Q972.5322961704697 322.6624371428092 972.5322961704697 320.0259694196854L972.5322961704697 320.0259694196854Q972.5322961704697 312.6309989767771 983.6354691833001 312.6309989767771L983.6354691833001 312.6309989767771Q985.3288102412414 312.6309989767771 987.7938003888775 312.6309989767771Q990.2802252334496 312.6309989767771 991.973566291391 312.9310847338806L991.973566291391 312.9310847338806Q991.973566291391 304.7644652012775 992.2736520484945 299.8130502090694Q992.595172502534 294.88306991379716 993.4311256830366 292.1822980998655Q994.2885135604753 289.48152628593374 995.7460729521209 288.62413840849507Q997.2250670407026 287.7881852279924 999.5400143097869 287.7881852279924L999.5400143097869 287.7881852279924Q1002.005004457423 287.7881852279924 1003.5483026368125 289.48152628593374Q1005.0916008162021 291.17486734387506 1005.9275539967049 293.7899003700629Q1006.7849418741434 296.42636809318674 1007.020723540439 299.66300733051764Q1007.2565052067347 302.8996465678485 1007.2565052067347 305.9862429266276L1007.2565052067347 305.9862429266276Q1007.2565052067347 308.15114731716017 1007.1707664189909 309.93022716284537Q1007.0850276312469 311.7093070085305 1007.0850276312469 313.0811276124324L1007.0850276312469 313.0811276124324Q1009.2499320217795 312.4809560982253 1011.5648792908638 312.3952173104815Q1013.8798265599482 312.3094785227376 1016.0447309504808 312.3094785227376L1016.0447309504808 312.3094785227376Q1021.7463603354478 312.3094785227376 1024.8329566942268 314.08855836842275Q1027.919553053006 315.86763821410796 1027.919553053006 319.87592654113365L1027.919553053006 319.87592654113365Q1027.919553053006 322.3409166887697 1026.8478182062076 323.81991077735137Q1025.7760833594093 325.27747016899707 1023.9970035137243 326.04911925869186Q1022.217923668039 326.8207683483866 1019.8172376112108 327.0565500146823Q1017.4379862513186 327.2923316809779 1014.651475649643 327.2923316809779L1014.651475649643 327.2923316809779Q1013.1081774702535 327.2923316809779 1011.1147506552086 327.2923316809779Q1009.0998891432278 327.2923316809779 1007.4065480852865 326.9708112269384L1007.4065480852865 326.9708112269384Q1007.4065480852865 335.15886545647743 1007.4065480852865 341.9536643851787Q1007.4065480852865 348.7484633138799 1007.2565052067347 354.985960122246Q1007.0850276312469 361.24489162754816 1006.9349847526952 367.41808434510637Q1006.7849418741434 373.5912770626646 1006.4848561170398 380.5361188699176L1006.4848561170398 380.5361188699176Q1006.3133785415522 384.2443214398397 1005.777511118153 386.23774825488454Q1005.2416436947539 388.25260976686536 1004.3199517265074 389.32434461366364Q1003.3982597582608 390.41751415739793 1002.2407861237187 390.6318611267576Q1001.0833124891765 390.8676427930532 999.5400143097869 390.8676427930532L999.5400143097869 390.8676427930532Q996.7535037081112 390.8676427930532 994.8243809838743 388.9385200688163Q992.8952582596374 387.0093973445793 992.595172502534 380.6861617484694ZM1043.6740553009408 373.7413199412163L1043.6740553009408 373.7413199412163Q1047.2107802953756 373.7413199412163 1050.2330725633465 376.52783054289193Q1053.2339301343818 379.29290644763154 1053.2339301343818 383.15115189610543L1053.2339301343818 383.15115189610543Q1053.2339301343818 386.8593544660276 1050.1473337756029 389.5601262799593Q1047.0607374168235 392.26089809389106 1043.20249196835 392.26089809389106L1043.20249196835 392.26089809389106Q1039.965852731019 392.26089809389106 1037.1150380385352 389.5601262799593Q1034.264223346052 386.8593544660276 1034.264223346052 382.85106613900194L1034.264223346052 382.85106613900194Q1034.264223346052 379.1428635690798 1037.1150380385352 376.44209175514806Q1039.965852731019 373.7413199412163 1043.6740553009408 373.7413199412163ZM1066.8235279917844 381.1577250810606L1066.8235279917844 381.1577250810606Q1066.502007537745 375.43466099915764 1066.2876605683853 368.1039946470573Q1066.0518789020896 360.77332829495685 1066.0518789020896 351.9851025512108L1066.0518789020896 351.9851025512108Q1066.0518789020896 341.03197241693215 1066.2019217806414 333.2297427322405Q1066.351964659193 325.4275130475488 1067.05930965808 320.41179396453276Q1067.745219960031 315.3960748815167 1069.2885181394204 313.0168235216245Q1070.83181631881 310.6161374647963 1073.6183269204857 310.6161374647963L1073.6183269204857 310.6161374647963Q1076.2333599466733 310.6161374647963 1078.2482214586544 312.4809560982253Q1080.241648273699 314.32434003471843 1080.5631687277387 320.49753275227664L1080.5631687277387 320.49753275227664Q1081.4848606959854 336.70216363586695 1081.4848606959854 351.83505967265904L1081.4848606959854 351.83505967265904Q1081.4848606959854 359.55155056960683 1081.1633402419457 366.2606107105642Q1080.8632544848422 372.9696708515216 1080.5631687277387 380.98624750557286L1080.5631687277387 380.98624750557286Q1080.391691152251 384.694450075495 1079.8558237288516 386.70931158747584Q1079.3199563054527 388.70273840252065 1078.398264337206 389.79590794625494Q1077.4765723689598 390.8676427930532 1076.3190987344174 391.10342445934884Q1075.1616250998752 391.33920612564447 1073.6183269204857 391.33920612564447L1073.6183269204857 391.33920612564447Q1070.83181631881 391.33920612564447 1068.9884323823171 389.4100834014075Q1067.1236137488877 387.4809606771706 1066.8235279917844 381.1577250810606ZM1073.7683697990374 282.6867273572325L1073.7683697990374 282.6867273572325Q1077.3050947934717 282.6867273572325 1080.327387061443 285.47323795890804Q1083.3282446324783 288.2383138636477 1083.3282446324783 292.0965593121216L1083.3282446324783 292.0965593121216Q1083.3282446324783 295.80476188204375 1080.241648273699 298.50553369597543Q1077.15505191492 301.20630550990717 1073.2968064664462 301.20630550990717L1073.2968064664462 301.20630550990717Q1070.0601672291152 301.20630550990717 1067.2093525366317 298.50553369597543Q1064.3585378441483 295.80476188204375 1064.3585378441483 291.7964735550181L1064.3585378441483 291.7964735550181Q1064.3585378441483 288.08827098509596 1067.2093525366317 285.3874991711642Q1070.0601672291152 282.6867273572325 1073.7683697990374 282.6867273572325ZM1136.8935522754573 324.9773844118935L1136.8935522754573 324.9773844118935Q1131.1704881935545 324.9773844118935 1126.6263324431297 326.8207683483866Q1122.060741995769 328.6855869818157 1116.359112610802 332.3723548548018L1116.359112610802 332.3723548548018Q1116.359112610802 335.6304287890687 1116.359112610802 341.8679255974348Q1116.359112610802 348.1268571027369 1116.20906973225 355.45752345483726Q1116.0590268536985 362.7881898069377 1115.8875492782108 369.8830744927424Q1115.737506399659 376.9779591785472 1115.2873777640038 381.75789659526765L1115.2873777640038 381.75789659526765Q1114.9658573099641 384.84449295404676 1114.5800327651168 386.62357279973196Q1114.1942082202695 388.40265264541716 1113.5082979183185 389.32434461366364Q1112.8009529194314 390.24603658191023 1111.6434792848895 390.48181824820585Q1110.4860056503474 390.7175999145015 1108.6426217138542 390.7175999145015L1108.6426217138542 390.7175999145015Q1106.7992377773612 390.7175999145015 1105.6417641428188 390.48181824820585Q1104.484290508277 390.24603658191023 1103.7126414185818 389.4100834014075Q1102.9409923288872 388.5526955239689 1102.4694289962958 386.8593544660276Q1101.9978656637047 385.16601340808626 1101.6977799066012 382.2294599278589L1101.6977799066012 382.2294599278589Q1101.3976941494975 379.44294932618334 1101.161912483202 374.81305478801465Q1100.9261308169064 370.18316024984597 1100.7760879383545 364.7173125311746Q1100.626045059803 359.23003011556733 1100.540306272059 353.59270482140823Q1100.4545674843152 347.97681422418515 1100.4545674843152 343.17544211052876L1100.4545674843152 343.17544211052876Q1100.4545674843152 335.3089083350292 1100.690349150611 330.378928039757Q1100.9261308169064 325.4275130475488 1101.5477370280494 321.5692675990749L1101.5477370280494 321.5692675990749Q1102.4694289962958 315.09598912441317 1104.0127271756855 313.40264806647184Q1105.556025355075 311.7093070085305 1108.1710583812628 311.7093070085305L1108.1710583812628 311.7093070085305Q1112.0293038297368 311.7093070085305 1113.9584265539738 313.85277670212713Q1115.8875492782108 316.01768109265976 1116.359112610802 320.9690960848679L1116.359112610802 320.9690960848679Q1122.060741995769 316.01768109265976 1128.6197592581748 313.0811276124324Q1135.1787765205802 310.166008829141 1142.1236183278334 310.166008829141L1142.1236183278334 310.166008829141Q1148.7683743779826 310.166008829141 1154.25565679359 313.2526051879201Q1159.7215045122612 316.3392015466992 1163.2796642036317 323.2840433539522L1163.2796642036317 323.2840433539522Q1165.4445685941641 327.44237455952964 1166.5163034409625 332.4580936425457Q1167.5880382877608 337.47381272556174 1168.0596016203522 343.02539923197696L1168.0596016203522 343.02539923197696Q1168.2096444989038 345.4903893796131 1168.3596873774557 347.89107543644127Q1168.5311649529433 350.29176149326946 1168.5954690437513 352.9925333072012Q1168.6812078314952 355.69330512113294 1168.6812078314952 359.0799872370156Q1168.6812078314952 362.4666693528982 1168.6812078314952 367.09656389106686L1168.6812078314952 367.09656389106686Q1168.6812078314952 372.047978883275 1168.5311649529433 376.35635296740423Q1168.3596873774557 380.6861617484694 1167.6737770755049 383.85849689499236Q1166.9878667735538 387.0093973445793 1165.2730910186765 388.78847719026453Q1163.5797499607352 390.56755703594973 1160.6431964805079 390.56755703594973L1160.6431964805079 390.56755703594973Q1153.548311794703 390.56755703594973 1153.2482260375996 383.7727581072485L1153.2482260375996 383.7727581072485Q1153.2482260375996 383.3011947746572 1153.2482260375996 379.8287738710307Q1153.2482260375996 376.35635296740423 1153.1624872498555 371.72645842923555Q1153.098183159048 367.09656389106686 1153.012444371304 362.31662647434644Q1152.9267055835603 357.536689057626 1152.7766627050084 354.4500926988469L1152.7766627050084 354.4500926988469Q1152.6266198264566 351.9851025512108 1152.390838160161 349.1342878587273Q1152.1550564938652 346.2620384693078 1151.769231949018 343.34691968601646Q1151.3834074041706 340.4103662057891 1150.7832358899636 337.70959439185737Q1150.1616296788204 335.0088225779257 1149.239937710574 332.84391818739306L1149.239937710574 332.84391818739306Q1147.0750333200413 327.7424603166332 1143.8383940827105 326.37063971273136Q1140.5803201484437 324.9773844118935 1136.8935522754573 324.9773844118935Z " fill="#03c988" transform="matrix(0.7487072187976206,0,0,0.7487072187976207,0,33.57752983671679)"/></g></svg>